<svg width="31" height="59" viewBox="0 0 31 59" fill="none" xmlns="http://www.w3.org/2000/svg">
<g clip-path="url(#clip0_1039_36632)">
<path fill-rule="evenodd" clip-rule="evenodd" d="M2.73214 10.5C1.23214 10.5 0 11.8656 0 13.5281V45.4719C0 47.1344 1.23214 48.5 2.73214 48.5H27.2679C28.7679 48.5 30 47.1344 30 45.4719V22.5531L19.875 10.5L2.73214 10.5Z" fill="#2286C0"/>
<path d="M2.026 43V36.7H4.591C5.263 36.7 5.851 36.835 6.355 37.105C6.865 37.369 7.261 37.738 7.543 38.212C7.825 38.686 7.966 39.232 7.966 39.85C7.966 40.468 7.825 41.014 7.543 41.488C7.261 41.962 6.865 42.334 6.355 42.604C5.851 42.868 5.263 43 4.591 43H2.026ZM2.692 42.424H4.555C5.113 42.424 5.596 42.316 6.004 42.1C6.418 41.878 6.739 41.575 6.967 41.191C7.195 40.801 7.309 40.354 7.309 39.85C7.309 39.34 7.195 38.893 6.967 38.509C6.739 38.125 6.418 37.825 6.004 37.609C5.596 37.387 5.113 37.276 4.555 37.276H2.692V42.424ZM12.2155 43.054C11.7415 43.054 11.3005 42.976 10.8925 42.82C10.4905 42.658 10.1395 42.433 9.83955 42.145C9.54555 41.851 9.31455 41.512 9.14655 41.128C8.98455 40.738 8.90355 40.312 8.90355 39.85C8.90355 39.388 8.98455 38.965 9.14655 38.581C9.31455 38.191 9.54555 37.852 9.83955 37.564C10.1395 37.27 10.4905 37.045 10.8925 36.889C11.2945 36.727 11.7355 36.646 12.2155 36.646C12.6895 36.646 13.1275 36.727 13.5295 36.889C13.9315 37.045 14.2795 37.267 14.5735 37.555C14.8735 37.843 15.1045 38.182 15.2665 38.572C15.4345 38.962 15.5185 39.388 15.5185 39.85C15.5185 40.312 15.4345 40.738 15.2665 41.128C15.1045 41.518 14.8735 41.857 14.5735 42.145C14.2795 42.433 13.9315 42.658 13.5295 42.82C13.1275 42.976 12.6895 43.054 12.2155 43.054ZM12.2155 42.46C12.5935 42.46 12.9415 42.397 13.2595 42.271C13.5835 42.139 13.8625 41.956 14.0965 41.722C14.3365 41.482 14.5225 41.206 14.6545 40.894C14.7865 40.576 14.8525 40.228 14.8525 39.85C14.8525 39.472 14.7865 39.127 14.6545 38.815C14.5225 38.497 14.3365 38.221 14.0965 37.987C13.8625 37.747 13.5835 37.564 13.2595 37.438C12.9415 37.306 12.5935 37.24 12.2155 37.24C11.8375 37.24 11.4865 37.306 11.1625 37.438C10.8385 37.564 10.5565 37.747 10.3165 37.987C10.0825 38.221 9.89655 38.497 9.75855 38.815C9.62655 39.127 9.56055 39.472 9.56055 39.85C9.56055 40.222 9.62655 40.567 9.75855 40.885C9.89655 41.203 10.0825 41.482 10.3165 41.722C10.5565 41.956 10.8385 42.139 11.1625 42.271C11.4865 42.397 11.8375 42.46 12.2155 42.46ZM19.7474 43.054C19.2734 43.054 18.8354 42.976 18.4334 42.82C18.0314 42.658 17.6834 42.433 17.3894 42.145C17.0954 41.857 16.8644 41.518 16.6964 41.128C16.5344 40.738 16.4534 40.312 16.4534 39.85C16.4534 39.388 16.5344 38.962 16.6964 38.572C16.8644 38.182 17.0954 37.843 17.3894 37.555C17.6894 37.267 18.0404 37.045 18.4424 36.889C18.8444 36.727 19.2824 36.646 19.7564 36.646C20.2124 36.646 20.6414 36.724 21.0434 36.88C21.4454 37.03 21.7844 37.258 22.0604 37.564L21.6374 37.987C21.3794 37.723 21.0944 37.534 20.7824 37.42C20.4704 37.3 20.1344 37.24 19.7744 37.24C19.3964 37.24 19.0454 37.306 18.7214 37.438C18.3974 37.564 18.1154 37.747 17.8754 37.987C17.6354 38.221 17.4464 38.497 17.3084 38.815C17.1764 39.127 17.1104 39.472 17.1104 39.85C17.1104 40.228 17.1764 40.576 17.3084 40.894C17.4464 41.206 17.6354 41.482 17.8754 41.722C18.1154 41.956 18.3974 42.139 18.7214 42.271C19.0454 42.397 19.3964 42.46 19.7744 42.46C20.1344 42.46 20.4704 42.4 20.7824 42.28C21.0944 42.16 21.3794 41.968 21.6374 41.704L22.0604 42.127C21.7844 42.433 21.4454 42.664 21.0434 42.82C20.6414 42.976 20.2094 43.054 19.7474 43.054ZM22.4489 43L25.0319 39.508V40.021L22.6019 36.7H23.3669L25.4099 39.472L25.1129 39.481L27.1559 36.7H27.8759L25.4729 39.976V39.508L28.0469 43H27.2729L25.0949 40.039H25.3739L23.2139 43H22.4489Z" fill="white"/>
<g opacity="0.5" filter="url(#filter0_d_1039_36632)">
<path fill-rule="evenodd" clip-rule="evenodd" d="M19.5664 10.8223V19.3365C19.5664 20.2307 20.2254 22.5777 22.9714 22.5777H30.6534L19.5664 10.8223Z" fill="white"/>
</g>
</g>
<defs>
<filter id="filter0_d_1039_36632" x="19.5664" y="10.8223" width="11.0879" height="13.0283" filterUnits="userSpaceOnUse" color-interpolation-filters="sRGB">
<feFlood flood-opacity="0" result="BackgroundImageFix"/>
<feColorMatrix in="SourceAlpha" type="matrix" values="0 0 0 0 0 0 0 0 0 0 0 0 0 0 0 0 0 0 127 0" result="hardAlpha"/>
<feOffset dy="1.27246"/>
<feComposite in2="hardAlpha" operator="out"/>
<feColorMatrix type="matrix" values="0 0 0 0 0 0 0 0 0 0.45 0 0 0 0 0 0 0 0 1 0"/>
<feBlend mode="normal" in2="BackgroundImageFix" result="effect1_dropShadow_1039_36632"/>
<feBlend mode="normal" in="SourceGraphic" in2="effect1_dropShadow_1039_36632" result="shape"/>
</filter>
<clipPath id="clip0_1039_36632">
<rect width="30.6529" height="58" fill="white" transform="translate(0 0.5)"/>
</clipPath>
</defs>
</svg>
