<svg width="31" height="39" viewBox="0 0 31 39" fill="none" xmlns="http://www.w3.org/2000/svg">
<path fill-rule="evenodd" clip-rule="evenodd" d="M2.73214 0.677734C1.23214 0.677734 0 2.04336 0 3.70586V35.6496C0 37.3121 1.23214 38.6777 2.73214 38.6777H27.2679C28.7679 38.6777 30 37.3121 30 35.6496V12.7309L19.875 0.677734L2.73214 0.677734Z" fill="#2286C0"/>
<path fill-rule="evenodd" clip-rule="evenodd" d="M19.6872 31.8508C20.2986 32.3852 21.1546 32.7414 22.2551 32.7414C24.2117 32.7414 24.9454 31.6727 24.9454 30.6633C24.9454 29.1577 23.5669 28.8021 22.3635 28.4918C21.4314 28.2513 20.6043 28.038 20.6043 27.3383C20.6043 26.6258 21.2157 26.2102 22.1329 26.2102C22.8054 26.2102 23.478 26.3883 24.0282 26.8039C24.0894 26.8633 24.2117 26.9227 24.2728 26.9227C24.5174 26.9227 24.7008 26.6852 24.7008 26.4477C24.7008 26.3289 24.6397 26.2102 24.5174 26.1508C23.9671 25.6758 23.1111 25.3789 22.194 25.3789C20.7266 25.3789 19.6872 26.2102 19.6872 27.3977C19.6872 28.739 20.9432 29.0668 22.104 29.3698C23.1012 29.6301 24.0282 29.8721 24.0282 30.7227C24.0282 31.257 23.6002 31.9695 22.3163 31.9695C21.4603 31.9695 20.7266 31.6133 20.2375 31.1977C20.1763 31.1383 20.0541 31.0789 19.9929 31.0789C19.6872 31.0789 19.5649 31.3164 19.5649 31.5539C19.5649 31.6727 19.5649 31.7914 19.6872 31.8508ZM11.8613 32.682C11.739 32.682 11.6168 32.6226 11.5556 32.5632L9.29339 29.5945L6.97002 32.5632C6.90888 32.6226 6.7866 32.682 6.66432 32.682C6.41975 32.682 6.23633 32.5038 6.23633 32.2663C6.23633 32.207 6.23633 32.0882 6.29747 32.0288L8.68198 29.0007L6.48089 26.0913C6.41975 26.032 6.35861 25.9726 6.35861 25.8538C6.35861 25.6757 6.54203 25.4382 6.7866 25.4382C6.97002 25.4382 7.09231 25.4976 7.15345 25.6163L9.29339 28.3476L11.3722 25.6163C11.4333 25.4976 11.5556 25.4382 11.6779 25.4382C11.9225 25.4382 12.167 25.6163 12.167 25.8538C12.167 25.9234 12.1461 25.9726 12.1287 26.0133C12.1164 26.0421 12.1059 26.0667 12.1059 26.0913L9.84367 28.9413L12.2282 32.0288C12.2893 32.0882 12.3505 32.207 12.3505 32.2663C12.3505 32.5038 12.1059 32.682 11.8613 32.682ZM17.9757 32.6226H14.674C14.3072 32.6226 14.0015 32.3257 14.0015 31.9695V25.8538C14.0015 25.6163 14.1849 25.4382 14.4906 25.4382C14.7352 25.4382 14.9186 25.6163 14.9186 25.8538V31.8507H17.9757C18.2202 31.8507 18.4037 32.0288 18.4037 32.207C18.4037 32.4445 18.2202 32.6226 17.9757 32.6226Z" fill="white"/>
<g opacity="0.5" filter="url(#filter0_d_1039_36675)">
<path fill-rule="evenodd" clip-rule="evenodd" d="M19.5664 0.322266V8.83654C19.5664 9.73066 20.2254 12.0777 22.9714 12.0777H30.6534L19.5664 0.322266Z" fill="white"/>
</g>
<defs>
<filter id="filter0_d_1039_36675" x="19.5664" y="0.322266" width="11.0879" height="13.0283" filterUnits="userSpaceOnUse" color-interpolation-filters="sRGB">
<feFlood flood-opacity="0" result="BackgroundImageFix"/>
<feColorMatrix in="SourceAlpha" type="matrix" values="0 0 0 0 0 0 0 0 0 0 0 0 0 0 0 0 0 0 127 0" result="hardAlpha"/>
<feOffset dy="1.27246"/>
<feComposite in2="hardAlpha" operator="out"/>
<feColorMatrix type="matrix" values="0 0 0 0 0 0 0 0 0 0.45 0 0 0 0 0 0 0 0 1 0"/>
<feBlend mode="normal" in2="BackgroundImageFix" result="effect1_dropShadow_1039_36675"/>
<feBlend mode="normal" in="SourceGraphic" in2="effect1_dropShadow_1039_36675" result="shape"/>
</filter>
</defs>
</svg>
