<svg width="31" height="59" viewBox="0 0 31 59" fill="none" xmlns="http://www.w3.org/2000/svg">
<g clip-path="url(#clip0_1039_36632)">
<path fill-rule="evenodd" clip-rule="evenodd" d="M2.73214 10.5C1.23214 10.5 0 11.8656 0 13.5281V45.4719C0 47.1344 1.23214 48.5 2.73214 48.5H27.2679C28.7679 48.5 30 47.1344 30 45.4719V22.5531L19.875 10.5L2.73214 10.5Z" fill="#2286C0"/>
<path d="M5.14 39.8223V32.8223H7.76C8.35333 32.8223 8.86333 32.9189 9.29 33.1123C9.71667 33.2989 10.0433 33.5723 10.27 33.9323C10.5033 34.2856 10.62 34.7156 10.62 35.2223C10.62 35.7156 10.5033 36.1423 10.27 36.5023C10.0433 36.8556 9.71667 37.1289 9.29 37.3223C8.86333 37.5156 8.35333 37.6123 7.76 37.6123H5.55L5.88 37.2623V39.8223H5.14ZM5.88 37.3223L5.55 36.9623H7.74C8.44 36.9623 8.97 36.8123 9.33 36.5123C9.69667 36.2056 9.88 35.7756 9.88 35.2223C9.88 34.6623 9.69667 34.2289 9.33 33.9223C8.97 33.6156 8.44 33.4623 7.74 33.4623H5.55L5.88 33.1123V37.3223ZM12.2201 39.8223V32.8223H15.0701C15.8167 32.8223 16.4701 32.9723 17.0301 33.2723C17.5967 33.5656 18.0367 33.9756 18.3501 34.5023C18.6634 35.0289 18.8201 35.6356 18.8201 36.3223C18.8201 37.0089 18.6634 37.6156 18.3501 38.1423C18.0367 38.6689 17.5967 39.0823 17.0301 39.3823C16.4701 39.6756 15.8167 39.8223 15.0701 39.8223H12.2201ZM12.9601 39.1823H15.0301C15.6501 39.1823 16.1867 39.0623 16.6401 38.8223C17.1001 38.5756 17.4567 38.2389 17.7101 37.8123C17.9634 37.3789 18.0901 36.8823 18.0901 36.3223C18.0901 35.7556 17.9634 35.2589 17.7101 34.8323C17.4567 34.4056 17.1001 34.0723 16.6401 33.8323C16.1867 33.5856 15.6501 33.4623 15.0301 33.4623H12.9601V39.1823ZM21.1418 36.2123H24.8418V36.8523H21.1418V36.2123ZM21.2218 39.8223H20.4818V32.8223H25.2818V33.4623H21.2218V39.8223Z" fill="white"/>
<g opacity="0.5" filter="url(#filter0_d_1039_36632)">
<path fill-rule="evenodd" clip-rule="evenodd" d="M19.5664 10.8223V19.3365C19.5664 20.2307 20.2254 22.5777 22.9714 22.5777H30.6534L19.5664 10.8223Z" fill="white"/>
</g>
</g>
<defs>
<filter id="filter0_d_1039_36632" x="19.5664" y="10.8223" width="11.0879" height="13.0283" filterUnits="userSpaceOnUse" color-interpolation-filters="sRGB">
<feFlood flood-opacity="0" result="BackgroundImageFix"/>
<feColorMatrix in="SourceAlpha" type="matrix" values="0 0 0 0 0 0 0 0 0 0 0 0 0 0 0 0 0 0 127 0" result="hardAlpha"/>
<feOffset dy="1.27246"/>
<feComposite in2="hardAlpha" operator="out"/>
<feColorMatrix type="matrix" values="0 0 0 0 0 0 0 0 0 0.45 0 0 0 0 0 0 0 0 1 0"/>
<feBlend mode="normal" in2="BackgroundImageFix" result="effect1_dropShadow_1039_36632"/>
<feBlend mode="normal" in="SourceGraphic" in2="effect1_dropShadow_1039_36632" result="shape"/>
</filter>
<clipPath id="clip0_1039_36632">
<rect width="30.6529" height="58" fill="white" transform="translate(0 0.5)"/>
</clipPath>
</defs>
</svg>
