<svg width="562" height="372" viewBox="0 0 562 372" fill="none" xmlns="http://www.w3.org/2000/svg">
<rect width="562" height="372" fill="#F6F6FC"/>
<path fill-rule="evenodd" clip-rule="evenodd" d="M273.062 177.846H279.74V203.53H273.062V177.846ZM272.086 170.603C272.086 169.609 272.445 168.77 273.164 168.085C273.918 167.366 274.945 167.007 276.247 167.007C277.548 167.007 278.592 167.366 279.38 168.085C280.202 168.77 280.613 169.609 280.613 170.603C280.613 171.596 280.202 172.435 279.38 173.12C278.592 173.77 277.548 174.096 276.247 174.096C274.945 174.096 273.918 173.77 273.164 173.12C272.445 172.435 272.086 171.596 272.086 170.603ZM311.892 177.846H318.57V203.53H311.892V177.846ZM310.916 170.603C310.916 169.609 311.276 168.77 311.995 168.085C312.748 167.366 313.776 167.007 315.077 167.007C316.379 167.007 317.423 167.366 318.211 168.085C319.033 168.77 319.444 169.609 319.444 170.603C319.444 171.596 319.033 172.435 318.211 173.12C317.423 173.77 316.379 174.096 315.077 174.096C313.776 174.096 312.748 173.77 311.995 173.12C311.276 172.435 310.916 171.596 310.916 170.603ZM365.772 195.568H376.817L379.694 203.53H387.091L374.146 167.315H368.957L356.012 203.53H363.05L365.772 195.568ZM375.276 189.918H367.57L370.19 181.955L371.269 176.253H371.526L372.605 181.904L375.276 189.918ZM396.594 167.572H389.557V203.531H396.594V167.572ZM346.879 200.14C346.879 198.941 347.256 197.999 348.01 197.314C348.763 196.595 349.756 196.236 350.989 196.236C352.29 196.236 353.318 196.595 354.071 197.314C354.825 197.999 355.201 198.941 355.201 200.14C355.201 201.338 354.825 202.297 354.071 203.016C353.318 203.736 352.29 204.095 350.989 204.095C349.756 204.095 348.763 203.736 348.01 203.016C347.256 202.297 346.879 201.338 346.879 200.14ZM330.451 192.897H332.248L338.515 203.531H346.169L339.235 191.562L336.409 189.558L339.029 187.606L345.193 177.846H337.848L331.992 188.068L330.451 188.788V167.572H323.773V203.531H330.451V192.897ZM289.818 177.846H284.938V213.804H291.616V203.273C292.301 203.616 292.986 203.856 293.671 203.993C294.356 204.164 295.229 204.249 296.291 204.249C298.174 204.249 299.835 203.924 301.274 203.273C302.746 202.623 303.979 201.681 304.972 200.448C306 199.215 306.77 197.726 307.284 195.979C307.798 194.198 308.054 192.212 308.054 190.02C308.054 185.5 307.25 182.229 305.64 180.209C304.03 178.154 301.616 177.127 298.397 177.127C296.65 177.127 295.161 177.435 293.928 178.051C292.729 178.668 291.685 179.627 290.794 180.928H290.589L289.818 177.846ZM293.311 183.753C294.065 183.102 295.092 182.777 296.394 182.777C298.072 182.777 299.287 183.394 300.041 184.626C300.794 185.859 301.171 187.606 301.171 189.866C301.171 192.982 300.691 195.226 299.733 196.595C298.774 197.931 297.335 198.599 295.418 198.599C294.493 198.599 293.74 198.496 293.157 198.291C292.609 198.051 292.096 197.743 291.616 197.366V186.681C292.027 185.38 292.592 184.404 293.311 183.753ZM245.619 167.572C244.729 167.675 243.89 167.795 243.102 167.932V203.53H250.14V188.787L253.838 189.455L262.006 203.53H270.122L261.903 189.815L259.386 188.222C261.681 187.503 263.513 186.219 264.883 184.37C266.252 182.52 266.937 180.123 266.937 177.178C266.937 175.192 266.543 173.548 265.756 172.247C265.002 170.911 263.975 169.866 262.674 169.113C261.407 168.36 259.951 167.829 258.307 167.521C256.698 167.212 255.054 167.058 253.376 167.058C252.657 167.058 251.869 167.075 251.013 167.11C250.157 167.144 249.266 167.195 248.342 167.264C247.451 167.332 246.544 167.435 245.619 167.572ZM251.732 173.377C252.451 173.342 253.17 173.325 253.89 173.325C255.739 173.325 257.143 173.77 258.102 174.661C259.061 175.517 259.54 176.716 259.54 178.257C259.54 180.311 258.958 181.784 257.794 182.674C256.629 183.565 255.071 184.01 253.119 184.01H250.14V173.582C250.516 173.479 251.047 173.411 251.732 173.377Z" fill="url(#paint0_linear_3552_8394)"/>
<path fill-rule="evenodd" clip-rule="evenodd" d="M212.332 155.039L172.516 154.023C170.011 153.82 165 154.876 165 160.727V213.746C165 214.491 165.325 216.143 166.625 216.794C168.25 217.606 169.266 216.59 170.282 215.372C171.094 214.396 200.008 177.994 214.363 159.914C215.379 158.332 216.395 155.142 212.332 155.039ZM182.469 183.681C186.732 183.681 190.188 179.498 190.188 174.337C190.188 169.176 186.732 164.992 182.469 164.992C178.206 164.992 174.75 169.176 174.75 174.337C174.75 179.498 178.206 183.681 182.469 183.681Z" fill="url(#paint1_linear_3552_8394)"/>
<path d="M216.206 202.453L201.574 185.142L191.064 198.537C194.911 203.071 202.893 212.469 204.047 213.788C205.49 215.436 210.23 218.734 215.382 213.788C219.504 209.831 217.649 204.583 216.206 202.453Z" fill="url(#paint2_linear_3552_8394)"/>
<path d="M219.915 202.453L205.283 185.142L194.772 198.537C198.619 203.071 206.602 212.469 207.756 213.788C209.198 215.436 213.938 218.734 219.091 213.788C223.212 209.831 221.358 204.583 219.915 202.453Z" fill="url(#paint3_linear_3552_8394)"/>
<path d="M201.574 185.142H205.284L194.774 198.537H191.064L201.574 185.142Z" fill="url(#paint4_linear_3552_8394)"/>
<path fill-rule="evenodd" clip-rule="evenodd" d="M215.997 155.054L175.605 154.023C173.063 153.817 167.979 154.889 167.979 160.824V214.612C167.979 215.368 168.309 217.044 169.628 217.704C171.277 218.528 172.307 217.498 173.338 216.261C174.162 215.272 203.495 178.341 218.058 160C219.089 158.395 220.119 155.159 215.997 155.054ZM185.702 184.112C190.028 184.112 193.534 179.868 193.534 174.632C193.534 169.396 190.028 165.152 185.702 165.152C181.377 165.152 177.871 169.396 177.871 174.632C177.871 179.868 181.377 184.112 185.702 184.112Z" fill="url(#paint5_linear_3552_8394)"/>
<defs>
<linearGradient id="paint0_linear_3552_8394" x1="242.858" y1="190.519" x2="396.61" y2="195.719" gradientUnits="userSpaceOnUse">
<stop stop-color="#1E4396"/>
<stop offset="1" stop-color="#3EB5E7"/>
</linearGradient>
<linearGradient id="paint1_linear_3552_8394" x1="174.954" y1="153.007" x2="168.047" y2="210.293" gradientUnits="userSpaceOnUse">
<stop stop-color="#70CDE7"/>
<stop offset="1" stop-color="#579CC3"/>
</linearGradient>
<linearGradient id="paint2_linear_3552_8394" x1="195.598" y1="197.301" x2="213.115" y2="216.261" gradientUnits="userSpaceOnUse">
<stop stop-color="#2E3085"/>
<stop offset="1" stop-color="#48A1D9"/>
</linearGradient>
<linearGradient id="paint3_linear_3552_8394" x1="199.306" y1="197.301" x2="216.824" y2="216.261" gradientUnits="userSpaceOnUse">
<stop stop-color="#1E4396"/>
<stop offset="1" stop-color="#3EB5E7"/>
</linearGradient>
<linearGradient id="paint4_linear_3552_8394" x1="198.895" y1="193.797" x2="196.01" y2="191.324" gradientUnits="userSpaceOnUse">
<stop stop-color="#202475"/>
<stop offset="1" stop-color="#3B53A0"/>
</linearGradient>
<linearGradient id="paint5_linear_3552_8394" x1="169.834" y1="155.878" x2="199.511" y2="183.494" gradientUnits="userSpaceOnUse">
<stop stop-color="#1E4396"/>
<stop offset="1" stop-color="#3EB5E7"/>
</linearGradient>
</defs>
</svg>
